<svg width="270" height="270" viewBox="0 0 270 270" fill="none" xmlns="http://www.w3.org/2000/svg">
<path d="M150.838 254.036C150.847 256.689 150.855 259.342 150.864 261.995H119.136C119.145 259.342 119.153 256.689 119.162 254.036L119.096 254.103H150.904L150.838 254.036Z" fill="#30BFF5"/>
<path d="M246.02 71.6569C251.34 71.582 254 74.2365 254 79.6204C254 116.597 254 153.574 254 190.551C254 195.935 251.34 198.589 246.02 198.514L246.087 198.58C246.087 156.251 246.087 113.921 246.087 71.5909L246.02 71.6569L246.02 71.6569Z" fill="#30BFF5"/>
<path d="M23.9797 198.515C18.6599 198.59 16 195.935 16 190.551C16 153.574 16 116.597 16 79.6204C16 74.2366 18.6599 71.5821 23.9798 71.6569L23.9129 71.591C23.9129 113.921 23.9129 156.251 23.9129 198.581L23.9797 198.515V198.515Z" fill="#30BFF5"/>
<path d="M119.162 16.135C119.086 10.8188 121.667 8.16062 126.904 8.16062C133.119 8.16062 139.361 8.51479 145.541 8.04532C150.24 7.68831 151.585 9.42878 150.901 13.6863C150.773 14.4854 150.854 15.3179 150.838 16.135L150.904 16.0681C140.301 16.0681 129.699 16.0681 119.096 16.0681L119.162 16.135V16.135Z" fill="#30BFF5"/>
<path d="M31.9107 63.7261C31.8358 58.4063 34.4858 55.7472 39.8608 55.7486C42.499 55.7505 45.1373 55.7776 47.7755 55.7933L47.7086 55.7274C47.8305 61.0627 45.1763 63.7293 39.7461 63.7272C37.1123 63.7243 34.4785 63.6829 31.8448 63.6592L31.9107 63.7261V63.7261Z" fill="#30BFF5"/>
<path d="M222.225 55.7933C224.863 55.7777 227.501 55.7505 230.139 55.7486C235.514 55.7446 238.164 58.4038 238.089 63.726L238.155 63.6592C235.521 63.683 232.888 63.7243 230.254 63.7272C224.824 63.7331 222.17 61.0665 222.291 55.7274L222.225 55.7933V55.7933Z" fill="#30BFF5"/>
<path d="M206.361 47.8617C208.999 47.8461 211.637 47.8189 214.275 47.817C219.651 47.8131 222.301 50.4719 222.225 55.7936L222.291 55.7276C219.658 55.7514 217.024 55.7927 214.39 55.7956C208.96 55.8015 206.306 53.1349 206.428 47.7958L206.361 47.8617H206.361Z" fill="#30BFF5"/>
<path d="M47.7756 55.7934C47.6991 50.4743 50.3489 47.8155 55.7249 47.8168C58.3631 47.8188 61.0013 47.8459 63.6394 47.8616L63.5725 47.7957C63.6944 53.131 61.0402 55.7976 55.61 55.7955C52.9762 55.7926 50.3424 55.7513 47.7087 55.7275L47.7756 55.7934V55.7934Z" fill="#30BFF5"/>
<path d="M190.497 39.9296C193.135 39.914 195.773 39.8868 198.411 39.8849C203.787 39.8809 206.437 42.5398 206.361 47.8615L206.428 47.7955C203.794 47.8192 201.16 47.8606 198.526 47.8635C193.096 47.8694 190.442 45.2028 190.564 39.8636L190.497 39.9296V39.9296Z" fill="#30BFF5"/>
<path d="M63.6395 47.8614C63.5629 42.5423 66.2127 39.8834 71.5888 39.8848C74.227 39.8868 76.8651 39.9139 79.5033 39.9296L79.4364 39.8636C79.5582 45.199 76.9041 47.8656 71.4739 47.8635C68.8401 47.8606 66.2063 47.8192 63.5726 47.7955L63.6394 47.8614H63.6395Z" fill="#30BFF5"/>
<path d="M174.633 31.998C177.271 31.9823 179.909 31.9551 182.547 31.9532C187.923 31.9493 190.573 34.6082 190.497 39.9298L190.564 39.8638C187.93 39.8876 185.296 39.929 182.662 39.9318C177.232 39.9377 174.578 37.2711 174.7 31.932L174.633 31.998L174.633 31.998Z" fill="#30BFF5"/>
<path d="M95.3662 31.9986C95.2912 26.6789 97.9413 24.0198 103.316 24.0212C105.955 24.0231 108.593 24.0503 111.231 24.0659L111.164 23.9999C111.286 29.3353 108.632 32.0019 103.202 31.9998C100.568 31.9969 97.934 31.9556 95.3002 31.9318L95.3662 31.9986L95.3662 31.9986Z" fill="#30BFF5"/>
<path d="M79.5032 39.9298C79.4268 34.6107 82.0764 31.9518 87.4521 31.9532C90.0901 31.9552 92.7282 31.9829 95.3662 31.9988C95.3662 31.9988 95.3002 31.932 95.3002 31.932C95.4221 37.2673 92.7679 39.9339 87.3377 39.9318C84.7039 39.929 82.0701 39.8876 79.4364 39.8638L79.5032 39.9298H79.5032Z" fill="#30BFF5"/>
<path d="M158.769 24.0659C161.407 24.0503 164.045 24.0231 166.684 24.0212C172.06 24.0173 174.709 26.6761 174.633 31.9978L174.7 31.9318C172.066 31.9556 169.432 31.9969 166.798 31.9998C161.368 32.0057 158.714 29.3391 158.836 23.9999L158.769 24.0659V24.0659Z" fill="#30BFF5"/>
<path d="M39.8436 206.446C37.2054 206.462 34.5673 206.489 31.9291 206.491C26.553 206.495 23.9032 203.836 23.9797 198.514L23.9129 198.58C26.5467 198.557 29.1804 198.515 31.8142 198.512C37.2444 198.507 39.8985 201.173 39.7767 206.512L39.8436 206.446L39.8436 206.446Z" fill="#30BFF5"/>
<path d="M246.02 198.514C246.097 203.834 243.447 206.492 238.071 206.491C235.433 206.489 232.795 206.462 230.157 206.446L230.223 206.512C230.101 201.177 232.756 198.51 238.186 198.512C240.82 198.515 243.453 198.557 246.087 198.58C246.087 198.58 246.02 198.514 246.02 198.514L246.02 198.514Z" fill="#30BFF5"/>
<path d="M63.6394 222.31C61.0011 222.326 58.3629 222.353 55.7246 222.355C50.3497 222.359 47.6997 219.699 47.7746 214.377L47.7087 214.444C50.3424 214.42 52.9762 214.379 55.61 214.376C61.0402 214.37 63.6944 217.037 63.5725 222.376L63.6394 222.31H63.6394Z" fill="#30BFF5"/>
<path d="M222.225 214.377C222.3 219.697 219.65 222.356 214.275 222.355C211.637 222.353 208.999 222.326 206.361 222.31C206.361 222.31 206.428 222.376 206.428 222.376C206.306 217.041 208.96 214.374 214.39 214.376C217.024 214.379 219.658 214.42 222.291 214.444L222.225 214.377L222.225 214.377Z" fill="#30BFF5"/>
<path d="M79.5033 230.242C76.8651 230.257 74.227 230.285 71.5888 230.287C66.2128 230.29 63.563 227.632 63.6394 222.31L63.5726 222.376C66.2063 222.352 68.8401 222.311 71.4739 222.308C76.9041 222.302 79.5583 224.969 79.4364 230.308L79.5033 230.242V230.242Z" fill="#30BFF5"/>
<path d="M206.361 222.31C206.437 227.629 203.787 230.288 198.411 230.287C195.773 230.285 193.135 230.257 190.497 230.242L190.564 230.308C190.442 224.972 193.096 222.306 198.526 222.308C201.16 222.311 203.794 222.352 206.428 222.376L206.361 222.31V222.31Z" fill="#30BFF5"/>
<path d="M95.3671 238.174C92.7289 238.189 90.0908 238.216 87.4526 238.218C82.0766 238.222 79.4268 235.563 79.5032 230.242L79.4364 230.308C82.0701 230.284 84.7039 230.243 87.3377 230.24C92.7679 230.234 95.4221 232.9 95.3002 238.24L95.3671 238.174Z" fill="#30BFF5"/>
<path d="M190.497 230.242C190.573 235.561 187.923 238.22 182.547 238.218C179.909 238.216 177.271 238.189 174.633 238.174L174.7 238.24C174.578 232.904 177.232 230.238 182.662 230.24C185.296 230.243 187.93 230.284 190.564 230.308L190.497 230.242V230.242Z" fill="#30BFF5"/>
<path d="M111.231 246.105C108.593 246.121 105.955 246.148 103.316 246.15C97.9404 246.154 95.2906 243.495 95.3671 238.174L95.3002 238.24C97.934 238.216 100.568 238.174 103.202 238.172C108.632 238.166 111.286 240.832 111.164 246.171L111.231 246.105L111.231 246.105Z" fill="#30BFF5"/>
<path d="M174.633 238.174C174.709 243.493 172.06 246.152 166.684 246.15C164.045 246.148 161.407 246.121 158.769 246.105L158.836 246.171C158.714 240.836 161.368 238.17 166.798 238.172C169.432 238.175 172.066 238.216 174.7 238.24L174.633 238.174H174.633Z" fill="#30BFF5"/>
<path d="M23.9798 71.6569C23.9026 66.2925 26.5462 63.6489 31.9107 63.726L31.8448 63.6592C31.9685 69.0708 29.3246 71.7147 23.9129 71.591L23.9798 71.6569V71.6569Z" fill="#30BFF5"/>
<path d="M238.089 63.726C243.454 63.6489 246.098 66.2925 246.02 71.6569L246.087 71.591C240.676 71.7147 238.032 69.0708 238.155 63.6592L238.089 63.726Z" fill="#30BFF5"/>
<path d="M111.231 24.0658C111.154 18.7014 113.797 16.0578 119.162 16.135L119.096 16.0681C119.22 21.4797 116.576 24.1237 111.164 23.9999L111.231 24.0658Z" fill="#30BFF5"/>
<path d="M150.838 16.135C156.202 16.0578 158.846 18.7014 158.769 24.0659C158.769 24.0659 158.836 23.9999 158.836 23.9999C153.424 24.1237 150.78 21.4797 150.904 16.0681L150.838 16.135V16.135Z" fill="#30BFF5"/>
<path d="M47.7746 214.377C42.4102 214.454 39.7665 211.811 39.8436 206.446L39.7768 206.512C45.1885 206.389 47.8324 209.032 47.7087 214.444L47.7746 214.377V214.377Z" fill="#30BFF5"/>
<path d="M230.157 206.446C230.234 211.811 227.59 214.454 222.225 214.377L222.291 214.444C222.168 209.032 224.812 206.389 230.223 206.512L230.157 206.446V206.446Z" fill="#30BFF5"/>
<path d="M119.162 254.036C113.798 254.114 111.154 251.47 111.231 246.105L111.164 246.171C116.576 246.048 119.22 248.692 119.096 254.103L119.162 254.036H119.162Z" fill="#30BFF5"/>
<path d="M158.769 246.105C158.846 251.47 156.202 254.114 150.838 254.036L150.904 254.103C150.78 248.692 153.424 246.048 158.836 246.171L158.769 246.105V246.105Z" fill="#30BFF5"/>
<path d="M246.086 71.5915V198.585C243.456 198.555 240.817 198.516 238.187 198.516C232.755 198.509 230.102 201.175 230.228 206.514C224.816 206.388 222.17 209.031 222.289 214.443C219.659 214.423 217.02 214.384 214.39 214.374C208.958 214.367 206.305 217.033 206.431 222.372C203.791 222.352 201.162 222.313 198.522 222.313C193.096 222.306 190.443 224.972 190.563 230.311C187.933 230.281 185.294 230.242 182.664 230.242C177.232 230.235 174.575 232.901 174.695 238.24C172.065 238.22 169.436 238.171 166.796 238.171C161.37 238.164 158.717 240.83 158.837 246.169C153.425 246.05 150.782 248.693 150.908 254.098H119.092C119.218 248.693 116.575 246.05 111.163 246.169C111.283 240.837 108.63 238.171 103.204 238.171C100.565 238.171 97.9349 238.22 95.3052 238.24C95.4247 232.901 92.7684 230.235 87.3363 230.242C84.7066 230.242 82.0669 230.281 79.4372 230.311C79.5567 224.972 76.9037 222.306 71.4782 222.313C68.8386 222.313 66.2089 222.352 63.5691 222.372C63.6953 217.04 61.0424 214.374 55.6103 214.374C52.9805 214.384 50.3409 214.423 47.7111 214.443C47.8306 209.031 45.1843 206.388 39.7722 206.514C39.8983 201.175 37.2454 198.509 31.8132 198.516C29.1835 198.516 26.5438 198.555 23.9141 198.585V71.5915C29.3263 71.7176 31.9693 69.0746 31.8431 63.6625C34.4828 63.6824 37.1125 63.7222 39.7423 63.7222C45.1744 63.7289 47.8306 61.0626 47.7111 55.7235C50.3409 55.7534 52.9805 55.7932 55.6103 55.7932C61.0424 55.7999 63.6953 53.1336 63.5691 47.7944C66.2089 47.8144 68.8386 47.8642 71.4782 47.8642C76.9037 47.8708 79.5567 45.2046 79.4372 39.8655C82.0669 39.8853 84.7066 39.9252 87.3363 39.9352C92.7684 39.9418 95.4247 37.2755 95.3052 31.9364C97.9349 31.9564 100.565 31.9962 103.204 31.9962C108.63 32.0028 111.283 29.3366 111.163 23.9975C116.575 24.1236 119.218 21.4806 119.092 16.0684H150.908C150.782 21.4806 153.425 24.1236 158.837 23.9975C158.717 29.3366 161.37 32.0028 166.796 31.9962C169.436 31.9962 172.065 31.9564 174.695 31.9364C174.575 37.2689 177.232 39.9352 182.664 39.9352C185.294 39.9252 187.933 39.8853 190.563 39.8655C190.443 45.1979 193.096 47.8642 198.522 47.8642C201.162 47.8642 203.791 47.8144 206.431 47.7944C206.305 53.1336 208.958 55.7999 214.39 55.7932C217.02 55.7932 219.659 55.7534 222.289 55.7235C222.17 61.0626 224.826 63.7289 230.258 63.7222C232.888 63.7222 235.517 63.6824 238.157 63.6625C238.031 69.0746 240.674 71.7176 246.086 71.5915V71.5915Z" fill="#30BFF5"/>
<path d="M150.838 254.036C150.847 256.689 150.855 259.342 150.864 261.995H119.136C119.145 259.342 119.153 256.689 119.162 254.036L119.096 254.103H150.904L150.838 254.036Z" fill="black"/>
<path d="M246.02 71.6569C251.34 71.582 254 74.2365 254 79.6204C254 116.597 254 153.574 254 190.551C254 195.935 251.34 198.589 246.02 198.514L246.087 198.58C246.087 156.251 246.087 113.921 246.087 71.5909L246.02 71.6569L246.02 71.6569Z" fill="black"/>
<path d="M23.9797 198.515C18.6599 198.59 16 195.935 16 190.551C16 153.574 16 116.597 16 79.6204C16 74.2366 18.6599 71.5821 23.9798 71.6569L23.9129 71.591C23.9129 113.921 23.9129 156.251 23.9129 198.581L23.9797 198.515V198.515Z" fill="black"/>
<path d="M119.162 16.135C119.086 10.8188 121.667 8.16062 126.904 8.16062C133.119 8.16062 139.361 8.51479 145.541 8.04532C150.24 7.68831 151.585 9.42878 150.901 13.6863C150.773 14.4854 150.854 15.3179 150.838 16.135L150.904 16.0681C140.301 16.0681 129.699 16.0681 119.096 16.0681L119.162 16.135V16.135Z" fill="black"/>
<path d="M31.9107 63.7261C31.8358 58.4063 34.4858 55.7472 39.8608 55.7486C42.499 55.7505 45.1373 55.7776 47.7755 55.7933L47.7086 55.7274C47.8305 61.0627 45.1763 63.7293 39.7461 63.7272C37.1123 63.7243 34.4785 63.6829 31.8448 63.6592L31.9107 63.7261V63.7261Z" fill="black"/>
<path d="M222.225 55.7933C224.863 55.7777 227.501 55.7505 230.139 55.7486C235.514 55.7446 238.164 58.4038 238.089 63.726L238.155 63.6592C235.521 63.683 232.888 63.7243 230.254 63.7272C224.824 63.7331 222.17 61.0665 222.291 55.7274L222.225 55.7933V55.7933Z" fill="black"/>
<path d="M206.361 47.8617C208.999 47.8461 211.637 47.8189 214.275 47.817C219.651 47.8131 222.301 50.4719 222.225 55.7936L222.291 55.7276C219.658 55.7514 217.024 55.7927 214.39 55.7956C208.96 55.8015 206.306 53.1349 206.428 47.7958L206.361 47.8617H206.361Z" fill="black"/>
<path d="M47.7756 55.7934C47.6991 50.4743 50.3489 47.8155 55.7249 47.8168C58.3631 47.8188 61.0013 47.8459 63.6394 47.8616L63.5725 47.7957C63.6944 53.131 61.0402 55.7976 55.61 55.7955C52.9762 55.7926 50.3424 55.7513 47.7087 55.7275L47.7756 55.7934V55.7934Z" fill="black"/>
<path d="M190.497 39.9296C193.135 39.914 195.773 39.8868 198.411 39.8849C203.787 39.8809 206.437 42.5398 206.361 47.8615L206.428 47.7955C203.794 47.8192 201.16 47.8606 198.526 47.8635C193.096 47.8694 190.442 45.2028 190.564 39.8636L190.497 39.9296V39.9296Z" fill="black"/>
<path d="M63.6395 47.8614C63.5629 42.5423 66.2127 39.8834 71.5888 39.8848C74.227 39.8868 76.8651 39.9139 79.5033 39.9296L79.4364 39.8636C79.5582 45.199 76.9041 47.8656 71.4739 47.8635C68.8401 47.8606 66.2063 47.8192 63.5726 47.7955L63.6394 47.8614H63.6395Z" fill="black"/>
<path d="M174.633 31.998C177.271 31.9823 179.909 31.9551 182.547 31.9532C187.923 31.9493 190.573 34.6082 190.497 39.9298L190.564 39.8638C187.93 39.8876 185.296 39.929 182.662 39.9318C177.232 39.9377 174.578 37.2711 174.7 31.932L174.633 31.998L174.633 31.998Z" fill="black"/>
<path d="M95.3662 31.9986C95.2912 26.6789 97.9413 24.0198 103.316 24.0212C105.955 24.0231 108.593 24.0503 111.231 24.0659L111.164 23.9999C111.286 29.3353 108.632 32.0019 103.202 31.9998C100.568 31.9969 97.934 31.9556 95.3002 31.9318L95.3662 31.9986L95.3662 31.9986Z" fill="black"/>
<path d="M79.5032 39.9298C79.4268 34.6107 82.0764 31.9518 87.4521 31.9532C90.0901 31.9552 92.7282 31.9829 95.3662 31.9988C95.3662 31.9988 95.3002 31.932 95.3002 31.932C95.4221 37.2673 92.7679 39.9339 87.3377 39.9318C84.7039 39.929 82.0701 39.8876 79.4364 39.8638L79.5032 39.9298H79.5032Z" fill="black"/>
<path d="M158.769 24.0659C161.407 24.0503 164.045 24.0231 166.684 24.0212C172.06 24.0173 174.709 26.6761 174.633 31.9978L174.7 31.9318C172.066 31.9556 169.432 31.9969 166.798 31.9998C161.368 32.0057 158.714 29.3391 158.836 23.9999L158.769 24.0659V24.0659Z" fill="black"/>
<path d="M39.8436 206.446C37.2054 206.462 34.5673 206.489 31.9291 206.491C26.553 206.495 23.9032 203.836 23.9797 198.514L23.9129 198.58C26.5467 198.557 29.1804 198.515 31.8142 198.512C37.2444 198.507 39.8985 201.173 39.7767 206.512L39.8436 206.446L39.8436 206.446Z" fill="black"/>
<path d="M246.02 198.514C246.097 203.834 243.447 206.492 238.071 206.491C235.433 206.489 232.795 206.462 230.157 206.446L230.223 206.512C230.101 201.177 232.756 198.51 238.186 198.512C240.82 198.515 243.453 198.557 246.087 198.58C246.087 198.58 246.02 198.514 246.02 198.514L246.02 198.514Z" fill="black"/>
<path d="M63.6394 222.31C61.0011 222.326 58.3629 222.353 55.7246 222.355C50.3497 222.359 47.6997 219.699 47.7746 214.377L47.7087 214.444C50.3424 214.42 52.9762 214.379 55.61 214.376C61.0402 214.37 63.6944 217.037 63.5725 222.376L63.6394 222.31H63.6394Z" fill="black"/>
<path d="M222.225 214.377C222.3 219.697 219.65 222.356 214.275 222.355C211.637 222.353 208.999 222.326 206.361 222.31C206.361 222.31 206.428 222.376 206.428 222.376C206.306 217.041 208.96 214.374 214.39 214.376C217.024 214.379 219.658 214.42 222.291 214.444L222.225 214.377L222.225 214.377Z" fill="black"/>
<path d="M79.5033 230.242C76.8651 230.257 74.227 230.285 71.5888 230.287C66.2128 230.29 63.563 227.632 63.6394 222.31L63.5726 222.376C66.2063 222.352 68.8401 222.311 71.4739 222.308C76.9041 222.302 79.5583 224.969 79.4364 230.308L79.5033 230.242V230.242Z" fill="black"/>
<path d="M206.361 222.31C206.437 227.629 203.787 230.288 198.411 230.287C195.773 230.285 193.135 230.257 190.497 230.242L190.564 230.308C190.442 224.972 193.096 222.306 198.526 222.308C201.16 222.311 203.794 222.352 206.428 222.376L206.361 222.31V222.31Z" fill="black"/>
<path d="M95.3671 238.174C92.7289 238.189 90.0908 238.216 87.4526 238.218C82.0766 238.222 79.4268 235.563 79.5032 230.242L79.4364 230.308C82.0701 230.284 84.7039 230.243 87.3377 230.24C92.7679 230.234 95.4221 232.9 95.3002 238.24L95.3671 238.174Z" fill="black"/>
<path d="M190.497 230.242C190.573 235.561 187.923 238.22 182.547 238.218C179.909 238.216 177.271 238.189 174.633 238.174L174.7 238.24C174.578 232.904 177.232 230.238 182.662 230.24C185.296 230.243 187.93 230.284 190.564 230.308L190.497 230.242V230.242Z" fill="black"/>
<path d="M111.231 246.105C108.593 246.121 105.955 246.148 103.316 246.15C97.9404 246.154 95.2906 243.495 95.3671 238.174L95.3002 238.24C97.934 238.216 100.568 238.174 103.202 238.172C108.632 238.166 111.286 240.832 111.164 246.171L111.231 246.105L111.231 246.105Z" fill="black"/>
<path d="M174.633 238.174C174.709 243.493 172.06 246.152 166.684 246.15C164.045 246.148 161.407 246.121 158.769 246.105L158.836 246.171C158.714 240.836 161.368 238.17 166.798 238.172C169.432 238.175 172.066 238.216 174.7 238.24L174.633 238.174H174.633Z" fill="black"/>
<path d="M23.9798 71.6569C23.9026 66.2925 26.5462 63.6489 31.9107 63.726L31.8448 63.6592C31.9685 69.0708 29.3246 71.7147 23.9129 71.591L23.9798 71.6569V71.6569Z" fill="black"/>
<path d="M238.089 63.726C243.454 63.6489 246.098 66.2925 246.02 71.6569L246.087 71.591C240.676 71.7147 238.032 69.0708 238.155 63.6592L238.089 63.726Z" fill="black"/>
<path d="M111.231 24.0658C111.154 18.7014 113.797 16.0578 119.162 16.135L119.096 16.0681C119.22 21.4797 116.576 24.1237 111.164 23.9999L111.231 24.0658Z" fill="black"/>
<path d="M150.838 16.135C156.202 16.0578 158.846 18.7014 158.769 24.0659C158.769 24.0659 158.836 23.9999 158.836 23.9999C153.424 24.1237 150.78 21.4797 150.904 16.0681L150.838 16.135V16.135Z" fill="black"/>
<path d="M47.7746 214.377C42.4102 214.454 39.7665 211.811 39.8436 206.446L39.7768 206.512C45.1885 206.389 47.8324 209.032 47.7087 214.444L47.7746 214.377V214.377Z" fill="black"/>
<path d="M230.157 206.446C230.234 211.811 227.59 214.454 222.225 214.377L222.291 214.444C222.168 209.032 224.812 206.389 230.223 206.512L230.157 206.446V206.446Z" fill="black"/>
<path d="M119.162 254.036C113.798 254.114 111.154 251.47 111.231 246.105L111.164 246.171C116.576 246.048 119.22 248.692 119.096 254.103L119.162 254.036H119.162Z" fill="black"/>
<path d="M158.769 246.105C158.846 251.47 156.202 254.114 150.838 254.036L150.904 254.103C150.78 248.692 153.424 246.048 158.836 246.171L158.769 246.105V246.105Z" fill="black"/>
<path d="M246.086 71.5915V198.585C243.456 198.555 240.817 198.516 238.187 198.516C232.755 198.509 230.102 201.175 230.228 206.514C224.816 206.388 222.17 209.031 222.289 214.443C219.659 214.423 217.02 214.384 214.39 214.374C208.958 214.367 206.305 217.033 206.431 222.372C203.791 222.352 201.162 222.313 198.522 222.313C193.096 222.306 190.443 224.972 190.563 230.311C187.933 230.281 185.294 230.242 182.664 230.242C177.232 230.235 174.575 232.901 174.695 238.24C172.065 238.22 169.436 238.171 166.796 238.171C161.37 238.164 158.717 240.83 158.837 246.169C153.425 246.05 150.782 248.693 150.908 254.098H119.092C119.218 248.693 116.575 246.05 111.163 246.169C111.283 240.837 108.63 238.171 103.204 238.171C100.565 238.171 97.9349 238.22 95.3052 238.24C95.4247 232.901 92.7684 230.235 87.3363 230.242C84.7066 230.242 82.0669 230.281 79.4372 230.311C79.5567 224.972 76.9037 222.306 71.4782 222.313C68.8386 222.313 66.2089 222.352 63.5691 222.372C63.6953 217.04 61.0424 214.374 55.6103 214.374C52.9805 214.384 50.3409 214.423 47.7111 214.443C47.8306 209.031 45.1843 206.388 39.7722 206.514C39.8983 201.175 37.2454 198.509 31.8132 198.516C29.1835 198.516 26.5438 198.555 23.9141 198.585V71.5915C29.3263 71.7176 31.9693 69.0746 31.8431 63.6625C34.4828 63.6824 37.1125 63.7222 39.7423 63.7222C45.1744 63.7289 47.8306 61.0626 47.7111 55.7235C50.3409 55.7534 52.9805 55.7932 55.6103 55.7932C61.0424 55.7999 63.6953 53.1336 63.5691 47.7944C66.2089 47.8144 68.8386 47.8642 71.4782 47.8642C76.9037 47.8708 79.5567 45.2046 79.4372 39.8655C82.0669 39.8853 84.7066 39.9252 87.3363 39.9352C92.7684 39.9418 95.4247 37.2755 95.3052 31.9364C97.9349 31.9564 100.565 31.9962 103.204 31.9962C108.63 32.0028 111.283 29.3366 111.163 23.9975C116.575 24.1236 119.218 21.4806 119.092 16.0684H150.908C150.782 21.4806 153.425 24.1236 158.837 23.9975C158.717 29.3366 161.37 32.0028 166.796 31.9962C169.436 31.9962 172.065 31.9564 174.695 31.9364C174.575 37.2689 177.232 39.9352 182.664 39.9352C185.294 39.9252 187.933 39.8853 190.563 39.8655C190.443 45.1979 193.096 47.8642 198.522 47.8642C201.162 47.8642 203.791 47.8144 206.431 47.7944C206.305 53.1336 208.958 55.7999 214.39 55.7932C217.02 55.7932 219.659 55.7534 222.289 55.7235C222.17 61.0626 224.826 63.7289 230.258 63.7222C232.888 63.7222 235.517 63.6824 238.157 63.6625C238.031 69.0746 240.674 71.7176 246.086 71.5915V71.5915Z" fill="#30BFF5"/>
<path d="M61.0534 127.896V89.5316H73.8993V127.896H61.0534Z" fill="white"/>
<path d="M106.041 127.896V121.531H99.7036V115.165H93.3957V127.896H80.5499V89.5316H112.549V95.8974H118.915V108.8H112.549V121.416H118.915V127.896H106.041L106.041 127.896ZM106.012 96.0691H93.3957V108.685H106.012V96.0691Z" fill="white"/>
<path d="M157.566 121.531V127.896H131.932V121.531H125.566V95.8974H131.932V89.5316H157.566V95.8974H163.931V121.531H157.566ZM151.085 96.0691H138.412V121.416H151.085V96.0691Z" fill="white"/>
<path d="M189.679 127.896V115.165H183.313V102.377H177.063V127.896H170.582V89.5316H189.808V102.205H196.158V115.051H202.467V89.5316H208.947V127.896H189.679H189.679Z" fill="white"/>
<path d="M86.4858 180.463V161.367H67.5043V180.463H61.0237V142.099H67.5043V154.83H86.4858V142.099H93.0232V180.463H86.4858V180.463Z" fill="white"/>
<path d="M125.137 180.463V167.732H106.155V180.463H99.6749V148.464H106.041V142.099H125.309V148.464H131.674V180.463H125.137H125.137ZM125.137 148.636H106.155V161.252H125.137V148.636Z" fill="white"/>
<path d="M163.96 174.098V180.463H144.691V174.098H138.326V148.464H144.691V142.099H170.326V155.002H163.788V148.636H144.806V173.983H163.788V167.618H170.326V174.098H163.96V174.098Z" fill="white"/>
<path d="M202.439 180.463V174.098H196.074V167.732H183.458V180.463H176.977V142.099H183.458V161.252H189.708V154.83H196.074V148.464H202.439V142.099H208.976V148.636H202.611V155.002H196.246V167.618H202.611V173.983H208.976V180.463H202.439H202.439Z" fill="white"/>
</svg>
